Coordinates
version=1
nRows=12
nColumns=34
inDegrees=yes

Units are S.I. units (second, meters, Newtons, ...)
If the header above contains a line with 'inDegrees', this indicates whether rotational values are in degrees (yes) or radians (no).

endheader
time	pelvis_tilt	pelvis_list	pelvis_rotation	pelvis_tx	pelvis_ty	pelvis_tz	hip_flexion_r	hip_adduction_r	hip_rotation_r	knee_angle_r	ankle_angle_r	subtalar_angle_r	mtp_angle_r	hip_flexion_l	hip_adduction_l	hip_rotation_l	knee_angle_l	ankle_angle_l	subtalar_angle_l	mtp_angle_l	lumbar_extension	lumbar_bending	lumbar_rotation	arm_flex_r	arm_add_r	arm_rot_r	elbow_flex_r	pro_sup_r	arm_flex_l	arm_add_l	arm_rot_l	elbow_flex_l	pro_sup_l
      4.05000000	      8.34698454	     -0.81360795	    -24.76363459	      0.31474469	      0.99627963	      0.06688890	     -2.80269003	    -10.06344735	    -14.71355308	      7.21920561	      5.72984550	     -3.41081708	      0.00000000	      2.21632502	     -2.68385798	    -14.88049268	     13.00172814	     14.60301461	      0.31382683	      0.00000000	    -13.06534615	     -3.37445035	      2.36509740	     10.66568366	    -10.60735050	     26.36819415	     20.21373543	    119.74817918	      8.93659840	    -13.68414070	     22.80400661	     19.99833504	    116.43147739
      4.06666670	      8.38560449	     -0.97773418	    -24.79733180	      0.31515584	      0.99628490	      0.06337486	     -2.80080949	    -10.14583082	    -14.70636540	      7.25448687	      5.70781863	     -3.42428058	      0.00000000	      2.19430864	     -2.61907381	    -14.89440250	     13.06445640	     14.62111080	      0.31466227	      0.00000000	    -12.96550010	     -3.41179100	      2.33684037	     10.70375007	    -10.56310596	     26.37625115	     20.26246058	    119.74817918	      8.99912702	    -13.73010394	     22.79876171	     19.99425125	    116.43467563
      4.08333330	      8.62247831	     -0.72323307	    -24.89155477	      0.31463004	      0.99609891	      0.05956757	     -2.22156604	    -10.87472359	    -14.40923800	      8.28983183	      5.56893396	     -4.19900256	      0.00000000	      2.47147445	     -2.15852084	    -15.39097249	     13.66873062	     14.94307546	      0.65172281	      0.00000000	    -13.11139252	     -4.07287249	      2.15634678	     10.76018532	    -10.49180235	     26.77937551	     20.82826931	    119.74817918	      9.36143582	    -13.83532513	     23.12167174	     19.32475041	    116.69858454
      4.10000000	      8.64769496	     -0.85955814	    -25.06936294	      0.31478034	      0.99611882	      0.05685183	     -2.10285743	    -10.94636611	    -14.30861002	      8.39305137	      5.29889751	     -4.13313355	      0.00000000	      2.46449156	     -2.11021761	    -15.48510052	     13.77183905	     15.19656552	      0.55123332	      0.00000000	    -13.08846261	     -4.27711660	      2.05985368	     10.78980660	    -10.23984101	     26.85559119	     20.88965754	    119.74817918	      9.31735042	    -13.97142209	     23.19262587	     19.14097559	    116.74329778
      4.11666670	      8.44033933	     -0.83619488	    -25.53871259	      0.31374603	      0.99552420	      0.05360333	     -1.11839485	    -11.17723365	    -13.62829120	      9.22758785	      4.99395500	     -4.85429581	      0.00000000	      2.93236047	     -2.07422532	    -16.16246202	     14.14055585	     15.50757684	      0.58229713	      0.00000000	    -12.98476935	     -4.51776069	      2.48679082	     11.07054529	    -10.13490053	     27.64104655	     20.37945758	    119.74817918	      9.89490691	    -13.90862284	     24.21014220	     18.10886654	    117.29476735
      4.13333330	      8.43478617	     -0.97776017	    -25.68844106	      0.31375853	      0.99570515	      0.05085444	     -0.97040274	    -11.22212444	    -13.58986263	      9.30239898	      4.72293107	     -4.78398161	      0.00000000	      2.94911809	     -2.04758241	    -16.19660511	     14.19940718	     15.66252721	      0.51655950	      0.00000000	    -13.09168935	     -4.70374836	      2.38155727	     11.14141552	     -9.87114597	     27.70595195	     20.51579127	    119.74817918	      9.90771686	    -14.07023788	     24.26549544	     18.02311124	    117.32721401
      4.15000000	      8.47327376	     -1.14770232	    -25.90712196	      0.31325355	      0.99601561	      0.04724497	     -0.52676677	    -11.39349748	    -13.60024873	      9.90097698	      4.12471320	     -4.82964642	      0.00000000	      3.01309389	     -2.00509470	    -16.33340663	     14.39245710	     15.84802403	      0.36632873	      0.00000000	    -13.40858993	     -4.77629126	      2.26836249	     11.46525688	     -9.82227789	     27.79984824	     20.52566290	    119.74817918	     10.06804744	    -14.10713624	     24.47208131	     17.81082610	    117.43301802
      4.16666670	      8.23994604	     -1.26439423	    -26.23958818	      0.31252337	      0.99589644	      0.04439732	      0.49053300	    -11.47702435	    -13.39467197	     10.97538389	      3.76528944	     -5.26586078	      0.00000000	      3.41821049	     -2.12145468	    -16.56700390	     14.69594307	     15.83169933	      0.10010482	      0.00000000	    -13.35591075	     -4.90291350	      2.55801023	     11.63337575	     -9.67430365	     28.15251680	     20.05064654	    119.74817918	     10.52380627	    -14.05204857	     25.12430291	     17.01547796	    117.76560215
      4.18333330	      8.14575838	     -1.57373332	    -26.54119368	      0.31220402	      0.99642403	      0.04157040	      0.99306899	    -11.38036011	    -13.51016909	     11.53777199	      3.16840292	     -5.22592065	      0.00000000	      3.33886259	     -2.26262235	    -16.63244809	     14.54381712	     15.88672379	      0.01061338	      0.00000000	    -13.59719104	     -4.79064036	      2.43373537	     11.89051180	     -9.60176430	     28.17055668	     20.10315348	    119.74817918	     10.50305757	    -14.10248279	     25.28268115	     16.78745074	    117.84148184
      4.20000000	      8.06428884	     -1.83975696	    -26.88582118	      0.31172276	      0.99683428	      0.03923261	      1.54786538	    -11.32213368	    -13.74774519	     12.20206056	      2.67027013	     -5.28653685	      0.00000000	      3.37067201	     -2.43579178	    -16.82469547	     14.63319238	     15.86100497	     -0.20038192	      0.00000000	    -13.81847684	     -4.79633109	      2.53359678	     12.10549416	     -9.53278953	     28.14327502	     19.96255204	    119.74817918	     10.71060428	    -14.16470113	     25.42075936	     16.48483355	    117.91925087
      4.21666670	      8.05148496	     -1.96779511	    -27.15805094	      0.31176683	      0.99719918	      0.03764541	      1.73656843	    -11.30233685	    -13.82670268	     12.34278188	      2.49836325	     -5.27477723	      0.00000000	      3.38998103	     -2.47451462	    -16.84436772	     14.79745244	     15.89384618	     -0.26809809	      0.00000000	    -13.89479243	     -5.03098425	      2.53528868	     12.15842829	     -9.30567330	     28.14260452	     20.00082119	    119.74817918	     10.77084474	    -14.40085819	     25.42535218	     16.31398544	    117.93295807
      4.23333330	      7.90603117	     -1.87887907	    -27.69801480	      0.31093535	      0.99686584	      0.03562957	      2.52959191	    -11.52042048	    -13.60976028	     12.94100060	      2.39795571	     -5.29477493	      0.00000000	      3.88609806	     -2.45826971	    -17.40191944	     15.37520152	     15.80162141	     -0.55766835	      0.00000000	    -13.86951413	     -5.36779787	      2.80973076	     12.43476694	     -9.03102031	     27.88584146	     19.64355745	    119.74817918	     11.17969394	    -14.40215331	     25.55230864	     15.64183549	    118.04215611
